<?xml version="1.0" encoding="UTF-8" standalone="no"?>
<!-- Generator: Adobe Illustrator 16.0.3, SVG Export Plug-In . SVG Version: 6.00 Build 0)  -->

<svg
   xmlns:dc="http://purl.org/dc/elements/1.1/"
   xmlns:cc="http://creativecommons.org/ns#"
   xmlns:rdf="http://www.w3.org/1999/02/22-rdf-syntax-ns#"
   xmlns:svg="http://www.w3.org/2000/svg"
   xmlns="http://www.w3.org/2000/svg"
   xmlns:sodipodi="http://sodipodi.sourceforge.net/DTD/sodipodi-0.dtd"
   xmlns:inkscape="http://www.inkscape.org/namespaces/inkscape"
   version="1.1"
   id="icon"
   x="0px"
   y="0px"
   width="62px"
   height="60px"
   viewBox="0 0 62 60"
   enable-background="new 0 0 62 60"
   xml:space="preserve"
   sodipodi:docname="home-icon03.svg"
   inkscape:version="0.92.1 r15371"><metadata
     id="metadata5237"><rdf:RDF><cc:Work
         rdf:about=""><dc:format>image/svg+xml</dc:format><dc:type
           rdf:resource="http://purl.org/dc/dcmitype/StillImage" /></cc:Work></rdf:RDF></metadata><defs
     id="defs5235" /><sodipodi:namedview
     pagecolor="#ffffff"
     bordercolor="#666666"
     borderopacity="1"
     objecttolerance="10"
     gridtolerance="10"
     guidetolerance="10"
     inkscape:pageopacity="0"
     inkscape:pageshadow="2"
     inkscape:window-width="1920"
     inkscape:window-height="1027"
     id="namedview5233"
     showgrid="false"
     inkscape:zoom="3.9333333"
     inkscape:cx="-0.39830508"
     inkscape:cy="30"
     inkscape:window-x="-8"
     inkscape:window-y="-8"
     inkscape:window-maximized="1"
     inkscape:current-layer="icon" /><g
     transform="matrix(0.20894423,0,0,-0.20894423,-71.305173,86.786527)"
     id="g5048"><path
       d="m 537.4375,206.7881 c 0.241,0.08 0.473,0.187 0.69,0.317 0.053,-0.259 0.115,-0.516 0.164,-0.777 -0.306,0.072 -0.612,0.144 -0.918,0.21 0.026,0.082 0.044,0.166 0.064,0.25 m -49.203,90.701 c -0.166,-1.215 -0.315,-2.43 -0.44,-3.644 -0.695,0.218 -1.393,0.43 -2.1,0.622 0.446,1.219 0.884,2.366 1.17,3.516 0.456,-0.166 0.912,-0.336 1.37,-0.494 m 26.908,-18.684 c 0.391,-0.097 0.801,-0.114 1.206,-0.069 0.586,-2.866 1.199,-5.726 1.83,-8.582 -1.041,2.872 -2.048,5.757 -3.036,8.651 m -42.282,-46.638 c -0.518,-0.675 -0.707,-1.556 -0.316,-2.417 -0.064,-0.519 -0.123,-1.038 -0.185,-1.557 -0.055,0.045 -0.11,0.091 -0.163,0.137 -0.209,0.914 -0.356,1.842 -0.437,2.781 0.597,2.42 1.247,4.823 1.955,7.207 -0.302,-2.048 -0.586,-4.097 -0.854,-6.151 m 47.916,-24.925 c -1.577,0.376 -3.145,0.781 -4.705,1.209 -0.762,0.729 -1.524,1.456 -2.285,2.184 l -0.296,0.521 c 2.55,-1.207 5.055,-2.505 7.517,-3.892 -0.077,-0.007 -0.154,-0.014 -0.231,-0.022 m -13.521,-2.411 c -1.227,-0.294 -2.45,-0.602 -3.668,-0.918 -0.691,1.009 -1.399,2.003 -2.117,2.991 1.913,-0.734 3.844,-1.419 5.785,-2.073 m 0.495,65.604 c 0.568,0.582 0.928,1.325 0.906,2.093 0.089,-0.035 0.175,-0.074 0.263,-0.108 0.149,-0.059 0.291,-0.088 0.435,-0.12 0.802,-3.254 1.649,-6.493 2.556,-9.716 z m -28.264,-48.222 c -0.702,0.589 -1.404,1.178 -2.107,1.767 0.049,0.133 0.098,0.266 0.147,0.4 0.662,-0.716 1.316,-1.438 1.96,-2.167 m 8.891,45.497 c -0.311,-0.159 -0.599,-0.37 -0.841,-0.639 0.076,1.678 0.171,3.353 0.277,5.024 0.155,-1.464 0.346,-2.925 0.564,-4.385 m 31.884,-35.818 c -1.923,3.671 -3.706,7.407 -5.349,11.202 2.091,-3.948 4.182,-7.897 6.274,-11.844 -0.303,0.22 -0.616,0.43 -0.925,0.642 m -4.882,-5.46 c 0.855,-1.279 1.695,-2.566 2.532,-3.855 -0.193,0.076 -0.387,0.149 -0.58,0.226 -1.111,1.669 -2.205,3.347 -3.274,5.042 0.438,-0.475 0.883,-0.942 1.322,-1.413 m -17.817,-10.216 c 0.359,0.237 0.728,0.39 1.103,0.47 1.046,-0.985 2.093,-1.969 3.139,-2.955 -1.759,0.716 -3.519,1.429 -5.278,2.147 0.232,0.213 0.577,0.326 1.036,0.338 m 3.58,40.362 c 0.017,0.324 0.041,0.648 0.054,0.973 0.067,1.708 -1.233,2.75 -2.649,2.946 0.141,0.772 0.272,1.546 0.416,2.317 0.048,0.256 0.049,0.505 0.03,0.749 0.333,-0.244 0.66,-0.494 0.996,-0.735 0.403,-0.29 0.808,-0.445 1.203,-0.508 0.902,-3.202 1.905,-6.373 2.99,-9.513 -1,1.266 -2.022,2.517 -3.04,3.771 m 11.576,-26.22 c 0.011,-0.154 0.03,-0.308 0.064,-0.462 -0.636,1.027 -1.275,2.052 -1.895,3.088 0.613,-0.874 1.227,-1.747 1.831,-2.626 m -31.101,22.815 c 0.018,-0.522 0.042,-1.043 0.066,-1.564 -0.242,-0.664 -0.483,-1.328 -0.725,-1.992 0.212,1.187 0.434,2.371 0.659,3.556 m 52.128,-33.421 c 0.272,-1.163 0.581,-2.309 0.917,-3.442 -0.373,0.36 -0.752,0.713 -1.123,1.074 -0.165,0.293 -0.335,0.583 -0.507,0.872 0.346,0.428 0.599,0.936 0.713,1.496 m 11.884,-18.12 c -0.544,5.842 -1.844,11.35 -3.945,16.704 -0.582,2.235 -1.165,4.471 -1.747,6.706 0.855,0.728 1.355,1.872 1.007,3.226 -4.78,18.584 -11.099,36.66 -18.912,54.185 -0.717,1.607 -2.148,1.93 -3.434,1.494 -2.463,6.064 -4.642,12.218 -6.519,18.491 -0.52,1.738 -2.149,2.483 -3.851,2.187 -5.652,-0.981 -11.318,-1.536 -17.046,-1.74 -2.004,0.674 -3.984,1.425 -5.933,2.273 -2.881,1.254 -5.525,-1.293 -4.211,-4.212 0.95,-2.109 -1.808,-5.801 -2.335,-7.854 -0.578,-2.247 -0.489,-4.642 0.934,-6.561 0.019,-0.024 0.041,-0.043 0.06,-0.067 -0.041,-0.024 -0.085,-0.042 -0.125,-0.068 -0.78,-0.216 -1.491,-0.739 -1.981,-1.405 -1.79,-2.437 -2,-5.509 -0.608,-8.082 l -8.665,-24.475 c -0.739,-2.087 1.32,-3.882 3.22,-3.752 -0.456,-1.244 -0.9,-2.491 -1.327,-3.745 -0.635,-0.135 -1.212,-0.556 -1.575,-1.375 -0.097,-0.222 -0.178,-0.442 -0.269,-0.664 -0.003,0.001 -0.006,0.003 -0.009,0.004 -0.003,-0.017 -0.007,-0.034 -0.01,-0.051 -1.468,-3.559 -2.091,-7.005 -2.039,-10.325 -0.419,-2.122 -0.838,-4.244 -1.257,-6.367 -0.165,-0.833 0.025,-1.547 0.41,-2.106 -0.634,-0.696 -0.87,-1.68 -0.17,-2.593 0.531,-0.692 1.047,-1.391 1.566,-2.09 -0.484,0.545 -0.976,1.083 -1.451,1.638 -1.919,2.24 -5.102,-0.613 -3.896,-3.006 0.384,-0.762 0.782,-1.515 1.194,-2.259 -1.049,-0.5 -1.702,-1.732 -0.966,-3.08 1.004,-1.839 2.064,-3.64 3.18,-5.399 -0.147,0.105 -0.295,0.211 -0.443,0.317 -2.348,1.667 -5.104,-1.529 -3.794,-3.794 l 2.273,-3.925 c -0.274,0.169 -0.547,0.338 -0.821,0.508 -2.198,1.365 -4.738,-1.165 -3.77,-3.368 -1.195,-0.379 -2.031,-1.652 -1.669,-2.996 0.486,-1.812 1.182,-2.992 2.62,-4.189 1.085,-0.903 2.388,-0.682 3.253,0.014 0.039,-0.039 0.078,-0.073 0.117,-0.113 1.519,-1.525 3.703,-0.51 4.22,1.136 0.902,-0.588 1.801,-1.184 2.709,-1.764 2.403,-1.535 5.209,1.473 3.833,3.832 -0.55,0.942 -1.1,1.884 -1.65,2.826 1.85,-1.275 3.699,-2.551 5.556,-3.815 1.894,-1.288 4.029,0.694 3.866,2.57 2.758,-2.057 5.685,-3.909 8.764,-5.54 2.216,-1.173 4.821,1.221 3.496,3.497 -0.646,1.11 -1.293,2.221 -1.94,3.331 0.941,-0.745 1.881,-1.491 2.822,-2.236 1.548,-1.225 4.285,-0.511 4.51,1.4 0.673,-0.976 1.837,-1.647 3.3,-1.417 8.745,1.377 17.378,3.215 25.925,5.519 0.148,0.04 0.278,0.1 0.411,0.157 0.404,0.087 0.806,0.174 1.208,0.261 0.761,0.164 1.322,0.626 1.689,1.22 3.353,-0.329 6.693,-1.043 9.999,-2.282 1.922,-0.721 4.417,1.169 4.226,3.219"
       style="fill:#f077ab;fill-opacity:1;fill-rule:nonzero;stroke:none"
       id="path4741"
       inkscape:connector-curvature="0" /><path
       d="m 448.8848,386.1309 c -0.285,0.521 -0.875,0.674 -1.417,0.576 -0.893,-0.161 -1.435,-0.73 -1.854,-1.423 -0.316,0.235 -0.607,0.506 -0.888,0.847 -1.012,1.227 -2.937,0.434 -3.351,-0.885 -0.251,-0.8 -0.413,-1.612 -0.509,-2.432 -1.255,0.285 -2.447,-0.898 -2.086,-2.166 0.504,-1.78 1.282,-3.792 2.96,-4.758 0.573,-0.329 1.442,0.081 1.39,0.798 -0.006,0.081 -0.026,0.159 -0.035,0.24 0.814,0.156 1.536,0.784 1.54,1.817 0.004,0.87 0.082,1.727 0.189,2.58 0.364,-0.168 0.742,-0.317 1.137,-0.445 0.748,-0.242 1.82,0.147 2.169,0.883 0.682,1.43 1.595,2.833 0.755,4.368"
       style="fill:#f077ab;fill-opacity:1;fill-rule:nonzero;stroke:none"
       id="path4745"
       inkscape:connector-curvature="0" /><path
       d="m 539.7559,389.126 c -1.106,0.857 -2.207,1.724 -3.31,2.584 -1.596,1.244 -4.049,0.058 -3.737,-1.803 -0.022,-10e-4 -0.045,0.003 -0.067,0 -1.397,-0.165 -1.644,-1.705 -0.548,-2.448 0.04,-0.027 0.097,-0.025 0.144,-0.041 0.092,-0.111 0.304,-0.263 0.539,-0.504 0.442,-0.455 0.907,-0.889 1.367,-1.327 0.92,-0.876 1.84,-1.753 2.759,-2.63 1.217,-1.158 2.66,-0.495 3.14,0.686 1.314,-0.367 2.634,0.494 2.804,2.055 0.186,1.726 -1.141,3.858 -3.091,3.428"
       style="fill:#f077ab;fill-opacity:1;fill-rule:nonzero;stroke:none"
       id="path4749"
       inkscape:connector-curvature="0" /><path
       d="m 478.2852,329.6641 c -2.326,3.228 -7.154,4.356 -10.061,1.147 -1.399,-1.545 -1.898,-3.618 -1.625,-5.651 0.202,-1.498 1.268,-3.119 2.712,-3.849 1.444,-1.317 3.558,-1.69 5.424,-1.21 4.089,1.052 6.035,6.115 3.55,9.563"
       style="fill:#fad2e3;fill-opacity:1;fill-rule:nonzero;stroke:none"
       id="path4753"
       inkscape:connector-curvature="0" /><path
       d="m 527.4492,333.2471 c -1.238,4.558 -7.116,5.221 -10.021,2.091 -1.661,-0.736 -2.548,-2.858 -2.29,-4.782 0.323,-2.395 2.245,-4.448 4.551,-5.119 4.758,-1.384 9.034,3.119 7.76,7.81"
       style="fill:#fad2e3;fill-opacity:1;fill-rule:nonzero;stroke:none"
       id="path4757"
       inkscape:connector-curvature="0" /><path
       d="m 543.3311,380.8027 c 0.462,0.94 0.691,2.025 0.759,3.144 6.914,-4.904 15.623,-6.793 24.027,-6.332 0.232,-0.212 0.461,-0.428 0.715,-0.625 -8.929,-3.479 -18.067,-3.574 -25.501,3.813 m 9.002,9.461 c 2.651,-0.986 4.713,-2.974 6.719,-4.907 2.216,-2.134 4.297,-4.181 6.885,-5.625 -7.864,0.304 -14.866,2.813 -21.952,6.553 -0.168,1.073 -0.502,2.101 -0.95,3.025 3.025,1.402 5.827,2.244 9.298,0.954 m -11.717,1.97 c 0.008,0.013 0.021,0.02 0.027,0.035 6.308,12.395 19.094,0.848 22.566,-8.016 -2.681,2.783 -5.011,5.978 -8.472,7.897 -4.053,2.247 -9.563,2.239 -13.237,-0.665 -0.275,0.271 -0.574,0.517 -0.884,0.749 m -0.517,-9.203 c -0.701,-0.994 -1.747,-1.066 -2.603,-1.588 -0.24,0.408 -0.478,0.802 -0.708,1.174 -1.556,2.512 -3.373,4.846 -5.4,6.983 2.82,2.066 6.655,1.943 8.618,-1.576 0.861,-1.545 1.168,-3.467 0.093,-4.993 m -9.518,-60.566 c -9.503,-10.943 -23.399,-15.111 -37.569,-14.558 -13.887,0.541 -28.145,5.374 -37.926,15.569 -4.645,4.84 -7.952,10.859 -9.672,17.334 -1.403,5.283 -0.65,10.559 -1.058,15.794 15.314,3.947 27.754,15.418 35.232,29.142 14.913,-15.7 37.044,-19.714 57.994,-21.126 0.021,-0.086 0.031,-0.168 0.062,-0.257 4.978,-14.45 3.166,-30.118 -7.063,-41.898 m -10.256,-43.119 c 3.899,-9.117 7.514,-18.362 10.807,-27.716 3.081,-8.752 5.879,-17.603 8.394,-26.535 2.356,-8.369 4.099,-17.097 6.957,-25.34 -0.124,0.011 -0.241,0.03 -0.375,0.027 -29.495,-0.703 -58.139,-11.073 -87.739,-8.812 3.58,19.051 7.483,38.035 11.641,56.969 4.059,18.487 9.511,37.095 11.8,55.934 9.014,-1.852 18.448,-1.869 27.258,0.182 3.4,-8.372 7.701,-16.394 11.257,-24.709 m -76.612,80.94 c -0.119,0.134 -0.279,0.226 -0.45,0.285 0.008,0.055 0.019,0.111 0.029,0.167 7.398,4.01 14.06,9.646 19.944,15.594 4.592,4.643 9.698,10.079 13.112,16.002 0.313,-0.724 0.699,-1.419 1.172,-2.075 -0.022,-0.037 -0.054,-0.066 -0.074,-0.105 -7.08,-14.209 -19.38,-23.794 -33.733,-29.868 m -3.108,22.621 c 0.865,1.554 2.42,2.585 4.114,3.038 1.622,0.432 3.018,-0.046 4.561,0.039 -2.954,-3.576 -5.262,-7.548 -6.838,-11.77 -2.129,2.359 -3.546,5.618 -1.837,8.693 m -3.14,1.909 c -0.001,0 -0.001,0 -0.002,0.001 -9.031,2.567 -14.95,-6.062 -21.034,-12.602 0.908,3.016 1.336,6.332 1.71,9.375 1.196,3.044 3.025,5.771 5.802,7.649 5.45,3.683 10.717,2.127 15.387,-1.621 0.17,-0.136 0.349,-0.198 0.521,-0.219 -0.941,-0.713 -1.759,-1.583 -2.384,-2.583 m -12.044,-20.426 c -3.408,-1.108 -6.947,-1.325 -10.4,-0.821 2.316,0.564 4.752,1.617 5.395,1.906 5.899,2.654 12.061,6.945 15.831,12.456 0.31,-1.615 1.006,-3.148 2.053,-4.398 -3.956,-3.754 -7.433,-7.374 -12.879,-9.143 m -11.954,1.896 c 8.593,4.839 12.135,16.746 23.265,17.086 -0.369,-0.935 -0.584,-1.919 -0.646,-2.91 -3.426,-3.295 -6.529,-6.661 -10.596,-9.277 -2.243,-1.445 -9.14,-6.091 -12.946,-5.909 0.331,0.315 0.633,0.657 0.923,1.01 m 15.279,32.162 c 7.064,2.283 12.685,-2.972 13.99,-9.491 -0.677,-0.239 -1.329,-0.554 -1.946,-0.925 0.052,0.198 0.041,0.426 -0.063,0.667 -2.54,5.888 -11.522,5.807 -16.35,3.273 -2.098,-1.101 -3.762,-2.628 -5.093,-4.411 1.464,4.841 4.365,9.239 9.462,10.887 m 43.658,-6.264 c -3.647,-4.654 -7.064,-9.494 -11.263,-13.755 -5.083,-5.159 -10.704,-9.531 -16.436,-13.862 0.014,0.028 0.036,0.047 0.048,0.077 4.669,12.36 17.099,20.061 27.651,27.54 m -17.493,-6.952 c 5.296,5.513 12.204,9.238 19.554,11.571 -7.013,-3.597 -13.512,-9.228 -19.224,-14.572 -3.133,-2.931 -6.103,-5.957 -8.456,-9.405 1.981,4.573 4.675,8.812 8.126,12.406 m 33.184,14.359 c 11.335,1.123 23.374,-1.023 32.862,-7.564 3.547,-2.446 6.726,-5.45 9.332,-8.884 -4.955,3.45 -11.078,5.924 -15.787,7.593 -11.566,4.1 -23.549,5.052 -35.576,6.775 -0.118,0.156 -0.249,0.299 -0.363,0.46 3.164,0.77 6.37,1.307 9.532,1.62 m 48.496,-29.4 c 0.021,-0.076 0.042,-0.154 0.064,-0.23 -20.21,1.807 -42.147,4.149 -56.115,20.591 -0.196,0.231 -0.453,0.39 -0.736,0.48 -0.404,0.842 -0.717,1.704 -0.96,2.587 5.882,-5.265 14.013,-7.605 21.352,-10.263 12.025,-4.356 24.096,-9.561 36.395,-13.165 m -5.493,6.351 c -8.228,2.864 -16.714,5.234 -24.92,7.931 -8.318,2.734 -19.41,4.722 -25.81,11.355 10.084,-2.426 20.461,-4.264 30.283,-7.549 4.694,-1.57 9.242,-3.582 13.473,-6.158 2.582,-1.572 4.758,-3.61 6.974,-5.579 m 15.257,27.903 c 6.205,2.222 12.522,-1.647 14.545,-7.598 0.608,-1.787 1.052,-3.711 1.482,-5.653 -2.609,4.236 -6.495,7.755 -11.181,9.012 -4.25,1.14 -9.516,-0.333 -11.852,-3.996 1.297,3.513 2.772,6.718 7.006,8.235 m -0.22,-49.455 c 0.009,-0.005 0.014,-0.013 0.023,-0.018 1.107,-0.559 1.914,0.025 2.933,-0.038 h 0.004 c 0.145,-0.009 0.296,-0.031 0.451,-0.072 1.274,-0.336 1.995,-1.425 1.791,-2.715 -0.449,-2.825 -3.082,-3.483 -5.469,-3.002 -0.005,1.946 -0.139,3.889 -0.388,5.817 0.218,0.009 0.437,0.027 0.655,0.028 m 16.037,-70.8 c 0.026,0.006 0.055,0 0.08,0.009 1.868,0.641 2.324,2.852 4.635,2.929 2.668,0.09 4.465,-2.935 3.666,-5.344 -0.774,-2.333 -3.52,-3.679 -5.831,-2.963 -2.36,0.73 -3.433,3.28 -2.55,5.369 m -34.886,-143.448 c 0.786,0.669 0.959,1.559 1.684,2.261 0.974,0.945 2.465,1.051 3.735,1.137 1.773,0.118 5.415,0.548 5.981,-1.703 0.693,-2.747 -2.767,-4.082 -4.848,-4.262 -2.25,-0.195 -4.573,0.53 -6.78,1.081 0.008,0.097 0.019,0.194 0.012,0.299 -0.02,0.33 -0.047,0.66 -0.069,0.99 0.1,0.061 0.197,0.123 0.285,0.197 m -56.132,-0.22 c -2.123,-0.125 -5.535,-0.607 -6.465,1.663 -1.487,3.629 4.271,4.01 6.611,3.463 2.732,-0.639 4.827,-2.287 6.535,-4.428 -2.337,-0.593 -5.605,-0.634 -6.681,-0.698 m -40.53,119.124 c -2.48,-0.603 -6.451,-0.078 -5.97,3.244 0.684,4.717 5.86,5.583 9.114,3.299 -0.117,-0.251 -0.156,-0.55 -0.08,-0.879 0.605,-2.587 -0.23,-4.975 -3.064,-5.664 m 7.233,83.957 c -1.034,0.149 -2.253,0.853 -2.63,1.881 -0.722,1.961 1.462,3.738 3.405,3.998 0.003,-1.89 0.213,-3.833 0.575,-5.765 -0.437,-0.105 -0.881,-0.182 -1.35,-0.114 m 136.348,35.266 c -8.114,2.54 -6.883,14.106 -9.491,20.497 -1.953,4.789 -5.912,8.291 -10.963,9.501 -4.808,1.152 -10.043,-0.09 -13.64,-3.533 -2.773,-2.655 -5.299,-7.378 -4.338,-11.345 -2.347,0.122 -4.655,-0.723 -6.036,-2.734 -1.612,1.533 -3.336,2.951 -5.15,4.243 -10.952,7.799 -24.945,10.003 -38.091,8.487 -12.922,-1.491 -26.329,-6.283 -35.408,-15.945 -0.135,-0.143 -0.263,-0.292 -0.396,-0.437 -0.05,0.129 -0.117,0.256 -0.215,0.378 -1.088,1.357 -3.103,1.683 -4.953,1.55 0.299,10.144 -11.242,16.192 -20.256,11.849 -5.136,-2.476 -8.53,-7.353 -10.067,-12.743 -1.914,-6.712 0.374,-21.3 -9.552,-22.114 -1.915,-0.158 -3.062,-2.884 -1.06,-3.915 11.386,-5.865 30.051,-3.902 35.975,9.01 0.284,-0.164 0.579,-0.312 0.886,-0.444 -0.365,-1.29 -0.669,-2.597 -0.899,-3.919 -0.279,-0.155 -0.522,-0.42 -0.695,-0.818 -1.73,-3.995 -1.909,-8.553 -0.833,-12.759 -0.091,-0.467 -0.174,-0.937 -0.233,-1.418 -4.155,0.803 -8.611,-2.995 -7.277,-7.589 0.658,-2.266 2.738,-3.956 4.986,-4.5 0.919,-0.222 2.32,-0.263 3.522,0.056 1.111,-4.026 2.734,-7.803 4.304,-10.67 5.868,-10.715 15.791,-18.346 27.093,-22.666 2.573,-0.984 5.225,-1.8 7.922,-2.461 -0.508,-1.272 -0.993,-2.555 -1.467,-3.843 -0.109,-0.07 -0.214,-0.164 -0.307,-0.292 -5.48,-7.539 -11.58,-14.743 -18.871,-20.599 -3.656,-2.938 -7.575,-5.521 -11.697,-7.755 -3.373,-1.829 -7.471,-2.977 -10.785,-4.971 -1.806,2.796 -5.094,4.523 -8.541,3.743 -4.412,-0.999 -7.655,-5.988 -6.541,-10.428 1.168,-4.657 7.72,-5.323 11.498,-3.847 2.661,1.04 5.013,4.126 4.83,6.985 3.805,0.649 7.75,2.896 10.977,4.614 4.223,2.25 8.2,4.952 11.943,7.926 5.588,4.439 10.519,9.595 14.423,15.484 -4.325,-14.062 -7.188,-28.746 -10.334,-42.929 -4.365,-19.675 -8.317,-39.444 -11.976,-59.261 -0.348,-1.883 0.772,-3.263 2.637,-3.462 9.686,-1.036 19.299,-0.721 28.879,0.231 -1.651,-6.908 -2.493,-14.035 -3.428,-21.055 -0.795,-5.978 -1.913,-12.222 -2.293,-18.343 -3.005,2.444 -6.903,3.793 -10.805,3.369 -4.551,-0.495 -9.043,-4.589 -7.592,-9.519 1.545,-5.249 8.241,-5.084 12.553,-4.463 1.548,0.223 9.659,2.148 9.865,5.095 0.045,0.112 0.088,0.228 0.119,0.357 1.699,7.398 1.999,15.325 2.863,22.866 0.838,7.313 1.898,14.688 2.131,22.06 10.759,1.227 21.482,3.152 32.228,4.765 -1.131,-17.081 0.244,-35.388 3.37,-52.151 0.23,-1.235 1.446,-1.644 2.487,-1.395 3.812,-2.58 8.679,-4.551 13.177,-2.464 3.605,1.673 5.723,5.883 4,9.685 -2.193,4.837 -11.559,4.972 -16.201,2.153 -0.588,6.366 -1.339,12.724 -1.816,19.097 -0.636,8.506 -1.11,17.031 -2.111,25.501 7.829,1.129 15.672,2.047 23.553,2.358 1.313,0.05 2.158,0.8 2.554,1.742 0.936,-0.321 2.083,0.112 2.029,1.397 -0.388,9.36 -3.075,18.772 -5.542,27.759 -2.608,9.506 -5.576,18.917 -8.843,28.217 -3.057,8.699 -6.393,17.298 -10.017,25.776 -1.662,3.887 -3.332,7.852 -5.091,11.782 1.112,-0.824 2.248,-1.574 3.369,-2.264 9.352,-7.099 21.511,-10.458 33.395,-8.958 0.094,-0.005 0.188,-0.012 0.283,-0.017 0.393,-0.02 0.727,0.053 1.012,0.184 0.051,0.009 0.102,0.012 0.153,0.02 0.446,-1.026 1.168,-1.968 2.173,-2.69 3.73,-2.679 9.1,-1.433 11.419,2.504 2.264,3.841 0.401,9.365 -3.949,10.746 -2.522,0.801 -8.582,-0.844 -8.475,-4.096 -0.715,-0.692 -1.191,-1.524 -1.45,-2.411 -0.257,0.118 -0.548,0.195 -0.883,0.208 -9.07,0.348 -18.215,1.718 -26.556,5.461 -3.759,1.688 -7.428,3.774 -10.541,6.498 -3.189,2.792 -5.044,6.126 -7.198,9.627 9.879,3.282 18.66,9.397 24.713,18.739 4.235,6.537 6.64,14.222 7.115,22.016 3.535,-1.276 7.794,0.014 9.183,4.125 1.476,4.373 -2.219,9.066 -6.633,8.454 -1.157,0.272 -2.38,0.328 -3.565,0.267 -0.508,2.255 -1.183,4.472 -2.053,6.62 0.565,1.158 0.202,2.819 -1.038,3.574 0.086,2.77 -0.927,5.807 -2.223,8.557 0.63,0.127 1.177,0.351 1.67,0.631 7.066,-11.689 23.448,-8.031 33.581,-3.331 1.713,0.795 1.072,3.299 -0.495,3.79"
       style="fill:#3c3c3b;fill-opacity:1;fill-rule:nonzero;stroke:none"
       id="path4761"
       inkscape:connector-curvature="0" /><path
       d="m 469.9453,354.2178 c -4.406,-0.528 -7.398,-4.86 -6.343,-9.119 0.336,-1.354 2.249,-0.977 2.334,0.315 0.155,2.38 1.939,5.034 4.495,5.188 2.789,0.166 4.128,-2.1 4.758,-4.43 0.539,-1.993 3.46,-1.529 3.533,0.478 0.162,4.432 -4.551,8.074 -8.777,7.568"
       style="fill:#3c3c3b;fill-opacity:1;fill-rule:nonzero;stroke:none"
       id="path4765"
       inkscape:connector-curvature="0" /><path
       d="m 516.3066,356.6445 c -4.271,0.126 -7.828,-4.298 -6.293,-8.392 0.43,-1.143 2.323,-1.084 2.269,0.308 -0.085,2.169 1.561,4.977 4.048,4.681 2.753,-0.327 2.772,-2.999 3.289,-5.048 0.325,-1.29 1.91,-1.259 2.592,-0.339 2.717,3.659 -2.258,8.683 -5.905,8.79"
       style="fill:#3c3c3b;fill-opacity:1;fill-rule:nonzero;stroke:none"
       id="path4769"
       inkscape:connector-curvature="0" /><path
       d="m 518.4053,329.7158 c -2.995,-1.651 -5.332,-4.257 -8.313,-5.985 -3.066,-1.779 -6.42,-3.048 -9.9,-3.733 -8.187,-1.609 -16.485,0.44 -23.8,4.156 -0.786,0.399 -1.758,-0.663 -0.999,-1.296 6.612,-5.525 15.046,-7.88 23.589,-6.786 7.246,0.929 17.812,4.848 21.026,12.041 0.46,1.03 -0.505,2.208 -1.603,1.603"
       style="fill:#3c3c3b;fill-opacity:1;fill-rule:nonzero;stroke:none"
       id="path4773"
       inkscape:connector-curvature="0" /></g></svg>