<?xml version="1.0" encoding="UTF-8" standalone="no"?>
<!-- Generator: Adobe Illustrator 16.0.3, SVG Export Plug-In . SVG Version: 6.00 Build 0)  -->

<svg
   xmlns:dc="http://purl.org/dc/elements/1.1/"
   xmlns:cc="http://creativecommons.org/ns#"
   xmlns:rdf="http://www.w3.org/1999/02/22-rdf-syntax-ns#"
   xmlns:svg="http://www.w3.org/2000/svg"
   xmlns="http://www.w3.org/2000/svg"
   xmlns:sodipodi="http://sodipodi.sourceforge.net/DTD/sodipodi-0.dtd"
   xmlns:inkscape="http://www.inkscape.org/namespaces/inkscape"
   version="1.1"
   id="icon"
   x="0px"
   y="0px"
   width="60px"
   height="60px"
   viewBox="0 0 60 60"
   enable-background="new 0 0 60 60"
   xml:space="preserve"
   sodipodi:docname="home-icon02.svg"
   inkscape:version="0.92.1 r15371"><metadata
     id="metadata5114"><rdf:RDF><cc:Work
         rdf:about=""><dc:format>image/svg+xml</dc:format><dc:type
           rdf:resource="http://purl.org/dc/dcmitype/StillImage" /></cc:Work></rdf:RDF></metadata><defs
     id="defs5112" /><sodipodi:namedview
     pagecolor="#ffffff"
     bordercolor="#666666"
     borderopacity="1"
     objecttolerance="10"
     gridtolerance="10"
     guidetolerance="10"
     inkscape:pageopacity="0"
     inkscape:pageshadow="2"
     inkscape:window-width="1920"
     inkscape:window-height="1027"
     id="namedview5110"
     showgrid="false"
     inkscape:zoom="3.9333333"
     inkscape:cx="-1.3983051"
     inkscape:cy="30"
     inkscape:window-x="-8"
     inkscape:window-y="-8"
     inkscape:window-maximized="1"
     inkscape:current-layer="icon" /><g
     transform="matrix(0.20621277,0,0,-0.20621277,-109.11115,86.178592)"
     id="g5057"><path
       d="m 696.1768,241.9824 c -0.517,0.483 -1.027,0.971 -1.529,1.466 -0.614,1.744 -1.218,3.491 -1.815,5.24 1.115,-2.235 2.23,-4.471 3.344,-6.706 m -14.127,20.125 c 0.06,0.196 0.114,0.394 0.173,0.59 0.157,-0.552 0.304,-1.107 0.466,-1.657 -0.213,0.355 -0.426,0.712 -0.639,1.067 m -0.632,26.117 c -0.007,-0.071 -0.015,-0.142 -0.022,-0.213 -0.24,0.1 -0.489,0.162 -0.738,0.202 0.164,0.401 0.328,0.801 0.491,1.202 0.219,0.235 0.378,0.444 0.501,0.636 0.068,-0.145 0.137,-0.296 0.205,-0.451 -0.227,-0.389 -0.388,-0.843 -0.437,-1.376 m -6.988,-45.838 c 0.257,0.539 0.509,1.081 0.759,1.623 1.243,-0.821 2.5,-1.624 3.767,-2.408 -1.508,0.261 -3.017,0.524 -4.526,0.785 m -0.479,50.196 c 0.391,-0.062 0.783,-0.123 1.173,-0.186 -0.376,-0.406 -0.726,-0.827 -1.054,-1.259 0.066,0.476 0.028,0.972 -0.119,1.445 m -3.656,-33.67 c -0.187,0.094 -0.375,0.19 -0.563,0.282 0.376,0.594 0.747,1.191 1.116,1.79 -0.189,-0.692 -0.375,-1.383 -0.553,-2.072 m -1.886,-15.475 c -0.406,1.938 -0.802,4.158 -1.341,6.339 0.504,-0.384 1.017,-0.752 1.525,-1.129 -0.053,-1.745 0.052,-3.51 0.364,-5.306 -0.182,0.033 -0.365,0.065 -0.548,0.096 m -3.069,29.56 c 0.203,1.756 0.364,3.522 0.473,5.3 0.002,0.032 -0.003,0.058 -0.002,0.088 0.858,-0.368 1.794,-0.256 2.519,0.188 0.059,-0.078 0.12,-0.153 0.179,-0.232 -0.83,-0.186 -1.588,-0.785 -1.976,-1.918 -0.391,-1.143 -0.787,-2.287 -1.193,-3.426 m -4.66,5.995 c -0.53,-1.395 -1.044,-2.795 -1.566,-4.194 0.606,2.083 1.238,4.16 1.926,6.223 0.63,1.888 -0.723,3.133 -2.245,3.288 0.178,0.942 0.403,1.874 0.665,2.798 1.217,-2.183 2.585,-4.27 4.066,-6.316 -1.143,0.038 -2.378,-0.567 -2.846,-1.799 m 47.969,-45.158 c -0.088,0.148 -0.194,0.31 -0.307,0.478 -1.353,2.048 -2.411,4.14 -3.194,6.492 -0.399,1.196 -1.28,1.832 -2.245,2.029 l -0.123,0.435 c 0.178,0.499 0.224,1.086 0.065,1.752 -2.735,11.428 -6.06,22.684 -9.956,33.766 0.811,0.577 1.369,1.55 1.175,2.777 -0.829,5.236 -2.531,10.147 -4.862,14.898 -1.105,2.251 -3.93,1.509 -4.847,-0.304 -0.289,0.408 -0.716,0.718 -1.29,0.867 -0.748,0.383 -1.56,0.551 -2.443,0.426 -0.036,-0.005 -0.063,-0.016 -0.098,-0.022 -4.305,0.643 -8.611,1.285 -12.915,1.928 -3.306,0.493 -6.237,1.171 -9.317,-0.425 -1.04,-0.538 -1.439,-1.437 -1.388,-2.347 -1.721,-0.876 -2.065,-3.305 -0.453,-4.68 -1.215,-3.8 -1.71,-7.571 -1.363,-11.41 -2.096,-5.852 -3.865,-11.805 -5.178,-17.886 -0.774,-3.59 -3.222,-10.305 -1.513,-14.211 -0.226,-2.032 -0.428,-4.068 -0.583,-6.112 -0.047,-0.614 0.098,-1.115 0.361,-1.509 -0.962,-0.006 -1.953,-0.719 -2.264,-1.638 -1.449,-4.296 -0.276,-8.712 3.272,-11.58 1.255,-1.014 2.872,-0.195 3.229,0.954 1.249,-0.084 2.67,0.859 2.608,2.248 -0.024,0.519 -0.046,1.036 -0.07,1.555 0.498,-1.041 0.986,-2.086 1.486,-3.126 1.301,-2.704 5.123,-0.704 4.596,1.938 -0.017,0.087 -0.029,0.174 -0.045,0.261 7.076,-3.098 14.794,-4.49 22.661,-4.039 1.37,0.078 2.194,0.985 2.403,2.017 2.886,-0.098 5.786,-0.07 8.696,0.096 3.506,-1.349 7.224,-1.939 11.168,-2.144 2.21,-0.115 3.14,1.819 2.766,3.523 0.522,0.808 0.638,1.868 -0.032,2.993"
       style="fill:#56bfec;fill-opacity:1;fill-rule:nonzero;stroke:none"
       id="path4841"
       inkscape:connector-curvature="0" /><path
       d="m 734.7666,244.7578 c -2.09,-1.363 -5.157,-0.29 -6.226,1.914 -1.184,2.442 0.554,5.513 2.942,6.389 0.068,0.025 0.13,0.058 0.192,0.093 1.597,-0.105 3.105,-0.359 4.318,-1.776 1.74,-2.033 0.933,-5.211 -1.226,-6.62 m -26.783,-16.614 c -20.681,0.424 -41.366,0.547 -62.048,0.895 3.637,23.244 8.559,46.278 12.141,69.519 5.899,-1.198 11.988,-1.617 17.93,-1.439 3.861,0.117 7.839,0.438 11.786,1.052 2.897,-12.407 7.387,-24.599 10.928,-36.845 3.191,-11.032 6.264,-22.097 9.263,-33.182 m -15.201,-51.209 c 0.353,4.123 0.519,8.258 0.395,12.399 -0.102,3.376 0.596,9.517 -1.931,12.203 -2.277,2.421 -7.045,1.452 -9.966,1.457 -5.661,0.01 -11.322,0.037 -16.982,0.096 -1.506,0.016 -2.949,-1.333 -2.88,-2.88 0.341,-7.574 0.811,-15.143 1.235,-22.713 l 0.08,-1.433 c -1.214,0.411 -3.711,0.028 -4.864,0.1 -3.421,0.212 -6.813,0.609 -10.185,1.191 0.672,15.18 2.092,30.657 1.606,45.847 18.782,-0.457 37.559,-1.063 56.342,-1.449 1.199,-14.587 2.402,-29.172 3.677,-43.751 -5.577,0.277 -11.033,-0.127 -16.527,-1.067 m 20.942,-34.521 c 1.505,-3.341 -3.366,-3.939 -5.774,-3.716 -2.174,0.204 -4.594,0.708 -6.322,2.105 3.65,1.862 10.278,5.648 12.096,1.611 m -75.59,170.96 c -9.664,8.355 -13.296,19.628 -12.431,32.064 1.078,-0.444 2.205,-0.376 3.997,-0.549 0.941,-0.092 1.626,0.844 1.676,1.677 0.18,2.894 0.202,5.79 0.138,8.686 0.165,-0.068 0.326,-0.145 0.491,-0.216 2.939,-2.055 6.068,-3.77 9.478,-5.123 1.291,-0.511 2.701,0.783 2.68,2.042 -0.026,1.608 -0.07,3.213 -0.133,4.818 5.749,-4.002 12.814,-5.302 19.941,-5.587 1.494,-0.06 2.441,1.431 2.151,2.756 1.866,-1.095 3.775,-2.096 5.843,-2.968 2.919,-1.231 6.355,-3.056 9.554,-3.158 0.738,-0.024 1.51,0.424 1.865,1.07 0.934,1.696 0.363,3.09 -0.12,4.917 -0.109,0.416 -0.215,0.834 -0.319,1.254 1.658,-1.111 3.355,-2.162 5.092,-3.141 3.075,-1.729 7.24,-4.564 10.784,-5.108 0.876,-0.135 1.627,-0.037 2.216,0.359 1.239,-0.433 2.413,0.558 2.161,1.898 -0.421,2.235 -0.568,4.408 -0.466,6.6 2.478,-2.963 4.778,-6.055 6.909,-9.295 0.43,-0.653 1.055,-0.886 1.649,-0.83 1.142,-1.423 3.073,-1.193 3.764,0.538 0.346,0.866 0.691,1.732 1.037,2.597 0.945,-0.548 1.899,-1.071 2.897,-1.499 2.96,-11.094 0.381,-23.248 -7.357,-31.863 -8.987,-10.007 -23.577,-12.585 -36.416,-12.943 -5.855,-0.163 -11.934,0.301 -17.772,1.653 -0.338,0.181 -0.714,0.276 -1.084,0.263 -6.676,1.684 -12.992,4.564 -18.225,9.088 m -13.566,36.642 c -0.519,-0.112 -1.406,-0.054 -2.072,-0.431 -0.611,-0.347 -1.091,-0.884 -1.423,-1.5 -0.458,-0.849 -0.595,-1.879 -0.528,-2.876 -0.485,0.244 -1.007,0.451 -1.585,0.577 0.068,3.749 -0.175,7.521 0.104,11.272 0.404,5.413 1.449,10.677 3.052,15.859 0.332,1.073 -0.762,2.154 -1.83,1.83 -2.329,-0.706 -4.536,-1.521 -6.658,-2.58 1.397,5.964 4.902,11.118 10.036,14.681 0.594,0.411 1,1.143 0.767,1.882 -0.057,0.176 -0.1,0.35 -0.151,0.526 -0.026,0.189 -0.081,0.384 -0.167,0.581 -0.629,2.381 -0.813,4.65 -0.615,6.947 0.118,0.466 0.257,0.93 0.412,1.391 1.915,-2.498 4.039,-4.792 6.368,-6.99 0.466,-0.44 1.375,-0.682 1.941,-0.25 13.651,10.389 30.127,15.485 47.12,14.956 -0.961,-1.036 -1.84,-2.145 -2.662,-3.357 -0.701,-1.033 0.233,-2.425 1.392,-2.425 14.894,-10e-4 29.116,-5.997 39.83,-16.136 -0.155,0.017 -0.311,0.034 -0.466,0.052 -1.325,0.151 -2.349,-1.684 -1.576,-2.746 7.1,-9.772 10.099,-21.7 8.349,-33.659 -0.115,0.402 -0.223,0.804 -0.355,1.201 -0.267,0.803 -0.787,1.308 -1.395,1.568 -0.016,0.016 -0.027,0.034 -0.044,0.05 -2.99,2.687 -5.979,5.375 -8.969,8.062 -1.254,1.128 -3.032,0.298 -3.172,-1.314 -0.1,-1.142 -0.201,-2.283 -0.302,-3.426 -1.901,2.24 -3.915,4.379 -6.14,6.281 -0.002,0.161 -0.017,0.327 -0.061,0.501 -0.501,2.013 -3.036,3.186 -4.661,1.483 -1.022,-1.07 -1.031,-3.266 -1.195,-4.62 -0.192,-1.576 -0.29,-3.154 -0.257,-4.743 10e-4,-0.036 -0.001,-0.08 -0.002,-0.12 -6.946,3.832 -13.437,8.433 -19.186,13.937 -1.054,1.008 -2.74,0.257 -2.803,-1.161 -0.169,-3.792 0.431,-7.358 1.662,-10.817 -6.383,2.454 -12.334,5.81 -17.659,10.169 -1.014,0.83 -2.553,0.317 -2.607,-1.08 -0.107,-2.818 0.481,-5.23 1.776,-7.464 -0.284,0.002 -0.56,0.034 -0.842,0.046 -5.544,0.803 -10.842,2.653 -14.826,6.903 -1.21,1.292 -3.715,0.337 -3.603,-1.492 0.129,-2.136 0.214,-4.271 0.278,-6.407 -3.367,1.561 -6.407,3.487 -9.294,5.998 -0.992,0.862 -3.089,0.729 -3.32,-0.876 -0.498,-3.45 -1.022,-6.897 -1.476,-10.353 -0.369,0.128 -0.779,0.159 -1.185,0.07 m -7.333,-17.11 c -1.574,0.248 -2.58,1.506 -2.753,3.05 -0.161,1.444 0.484,2.768 1.71,3.538 0.932,0.587 2.873,1.078 4.163,0.817 -0.217,-2.121 -0.152,-4.266 0.142,-6.398 -1.028,-0.593 -1.875,-1.225 -3.262,-1.007 m 26.32,-188.682 c -2.197,-0.213 -5.968,-0.767 -7.971,0.319 -3.18,1.725 -1.55,4.132 0.874,5.187 2.071,0.9 4.472,0.614 6.59,0.047 2.853,-0.764 5.269,-2.474 7.91,-3.706 -1.97,-0.661 -6.937,-1.802 -7.403,-1.847 m -22.384,92.215 c -1.443,-2.15 -4.491,-2.895 -6.53,-1.2 -1.813,1.508 -2.352,4.317 -1.027,6.31 1.134,1.709 3.074,2.489 5.034,2.541 0.371,-0.251 0.866,-0.339 1.311,-0.231 1.467,-2.235 2.871,-4.948 1.212,-7.42 m 110.439,100.936 c -0.34,-3.311 -3.386,-4.359 -6.139,-3.72 0.252,2.52 0.258,5.061 -0.005,7.587 2.853,1.515 6.499,-0.4 6.144,-3.867 m 8.804,-84.912 c -1.317,2.452 -4.949,4.805 -8.092,4.695 -1.097,9.025 -8.065,18.287 -14.264,24.56 -5.703,5.77 -14.761,13.546 -23.472,12.857 -0.557,1.532 -1.128,3.057 -1.733,4.561 9.027,2.077 17.528,6.026 23.601,13.197 4.179,4.935 7.013,10.874 8.341,17.118 9.861,-2.574 16.995,10.238 8.113,16.414 -0.694,0.483 -2.007,0.756 -2.621,1.295 -1.208,-0.159 -1.5,0.141 -0.879,0.901 0.106,0.743 0.186,1.489 0.241,2.239 0.297,3.612 0.178,7.25 -0.316,10.84 -0.676,4.921 -2.046,13.951 -6.779,17.028 0.645,-0.083 1.29,-0.165 1.935,-0.247 1.641,-0.209 2.819,2.056 1.92,3.345 -5.376,7.7 -12.697,13.764 -21.163,17.824 -4.019,1.927 -8.247,3.455 -12.569,4.54 -1.793,0.451 -4.463,1.328 -6.809,1.351 0.578,0.712 1.123,1.456 1.646,2.244 0.955,1.439 -0.311,3.359 -1.931,3.363 -10.536,0.024 -21.192,-0.399 -31.453,-3.008 -7.179,-1.825 -16.759,-4.83 -21.644,-10.935 -3.086,1.837 -5.344,4.098 -7.047,7.328 -0.661,1.253 -2.867,1.384 -3.488,0 -2.075,-4.623 -3.783,-9.312 -2.202,-14.067 -8.328,-4.925 -10.993,-16.812 -11.891,-25.726 -0.186,-1.847 2.237,-2.454 3.401,-1.409 1.332,1.195 2.678,2.374 4.043,3.528 -0.7,-3.105 -1.227,-6.245 -1.51,-9.431 -0.316,-3.581 -0.773,-7.717 0.131,-11.32 -0.861,-0.262 -1.649,-0.63 -2.268,-1.11 -2.484,-1.925 -2.994,-5.498 -2.499,-8.424 0.554,-3.276 2.497,-6.605 5.657,-7.937 2.234,-0.942 5.115,-0.752 6.738,1.065 2.133,-7.148 6.622,-13.827 11.795,-18.597 5.83,-5.375 12.876,-8.869 20.385,-10.951 -0.547,-1.995 -1.068,-3.999 -1.576,-6.006 -8.022,-5.165 -14.776,-12.077 -20.446,-19.737 -5.564,-7.517 -12.172,-17.917 -13.472,-27.519 -2.678,0.614 -5.703,-0.37 -7.566,-2.512 -2.961,-3.406 -1.906,-8.756 1.305,-11.613 3.459,-3.077 8.743,-2.396 11.812,0.896 3.99,4.279 2.018,10.212 -1.578,14.021 -0.021,0.023 -0.046,0.037 -0.067,0.058 1.576,3.558 2.711,7.362 4.431,10.859 2.283,4.644 4.974,9.082 7.966,13.302 4.75,6.699 10.456,12.519 16.554,17.942 -4.913,-20.495 -8.055,-41.564 -11.241,-62.296 -0.283,-1.837 0.733,-3.578 2.759,-3.622 0.716,-0.015 1.432,-0.037 2.149,-0.052 -1.832,-15.85 -1.608,-32.181 -2.307,-48.086 -0.045,-1.055 0.826,-2.264 1.886,-2.477 2.542,-0.512 5.091,-0.979 7.65,-1.374 -0.49,-4.321 -0.731,-8.668 -0.781,-13.018 -0.029,-2.548 -0.349,-5.375 -0.062,-8.016 -4.783,2.828 -11.286,4.531 -16.269,2.577 -4.407,-1.727 -7.297,-7.131 -3.23,-10.852 3.786,-3.466 11.032,-2.939 15.592,-1.764 1.469,0.378 7.306,3.418 7.48,5.873 0.013,0.025 0.033,0.042 0.045,0.068 1.637,3.697 0.727,8.128 0.733,12.114 0.008,4.175 0.079,8.35 0.091,12.525 1.045,-0.125 2.092,-0.241 3.142,-0.33 2.755,-0.233 7.24,-1.264 9.097,1.545 1.794,2.714 0.379,7.818 0.231,10.848 -0.235,4.796 -0.462,9.592 -0.727,14.387 3.16,0.012 6.319,0.026 9.479,0.013 1.787,-0.007 3.575,-0.014 5.362,-0.022 1.192,-0.005 2.384,-0.009 3.575,-0.013 1.649,0.521 2.162,0.36 1.538,-0.483 0.392,-0.756 0.065,-4.617 0.118,-5.738 0.081,-1.757 0.125,-3.518 0.131,-5.276 0.014,-4.11 -0.225,-8.2 -0.633,-12.288 -0.194,-1.939 1.919,-2.976 3.512,-2.676 2.977,0.558 5.983,0.902 8.999,1.077 -0.758,-4.746 -1.338,-9.506 -1.631,-14.314 -0.288,-4.712 -0.962,-10.049 -0.245,-14.836 -0.132,-0.616 0.017,-1.292 0.356,-1.828 0.01,-0.042 0.015,-0.087 0.024,-0.129 0.201,-0.807 0.87,-1.252 1.587,-1.337 3.46,-6.587 17.319,-7.51 19.431,0.592 1.118,4.287 -2.342,7.899 -6.37,8.573 -3.16,0.527 -7.043,-0.392 -10.289,-2.024 0.105,3.376 -0.154,6.841 -0.131,10.085 0.035,5.113 -0.065,10.218 -0.236,15.325 3.582,0.093 7.171,-0.048 10.739,-0.386 1.545,-0.147 3.196,1.522 3.056,3.056 -1.424,15.649 -2.95,31.287 -4.47,46.927 0.333,-0.006 0.665,-0.016 0.998,-0.021 2.088,-0.036 3.678,2.092 3.111,4.084 -3.533,12.432 -7.178,24.832 -10.95,37.194 -2.83,9.277 -5.379,18.856 -8.549,28.113 7.687,-2.283 14.776,-7.835 20.104,-13.546 2.987,-3.202 5.583,-6.742 7.741,-10.553 0.689,-1.217 1.267,-2.485 1.813,-3.765 0.978,-2.679 1.636,-5.439 2.607,-8.103 -3.204,-1.733 -5.152,-5.399 -4.071,-9.224 1.384,-4.901 7.242,-7.671 11.899,-5.633 4.488,1.964 6.848,7.871 4.477,12.284"
       style="fill:#3c3c3b;fill-opacity:1;fill-rule:nonzero;stroke:none"
       id="path4845"
       inkscape:connector-curvature="0" /><path
       d="m 696.1572,322.5791 c -3.865,-1.911 -7.074,-4.674 -11.176,-6.242 -3.764,-1.439 -7.78,-2.271 -11.807,-2.414 -9.052,-0.321 -17.409,2.938 -25.053,7.528 -0.719,0.432 -1.44,-0.547 -0.88,-1.141 6.836,-7.245 16.794,-10.69 26.676,-10.316 8.289,0.314 19.256,3.453 24.453,10.372 1.059,1.412 -0.921,2.852 -2.213,2.213"
       style="fill:#3c3c3b;fill-opacity:1;fill-rule:nonzero;stroke:none"
       id="path4849"
       inkscape:connector-curvature="0" /><path
       d="m 658,342.9893 c -3.392,-0.319 -5.432,-3.475 -4.958,-6.694 0.174,-1.181 1.907,-0.796 1.978,0.267 0.173,2.638 3.451,4.69 5.543,2.561 0.967,-0.986 0.834,-3.946 2.816,-3.433 0.626,0.162 1.013,0.749 1.042,1.369 0.16,3.33 -3.177,6.235 -6.421,5.93"
       style="fill:#3c3c3b;fill-opacity:1;fill-rule:nonzero;stroke:none"
       id="path4853"
       inkscape:connector-curvature="0" /><path
       d="m 689.2031,343.6572 c -3.725,0.479 -7.361,-2.634 -7.005,-6.457 0.117,-1.264 1.977,-1.696 2.333,-0.316 0.495,1.913 2.254,3.977 4.446,3.499 2.497,-0.545 2.181,-2.756 3.154,-4.491 0.536,-0.957 1.829,-0.833 2.393,0 2.162,3.197 -2.342,7.382 -5.321,7.765"
       style="fill:#3c3c3b;fill-opacity:1;fill-rule:nonzero;stroke:none"
       id="path4857"
       inkscape:connector-curvature="0" /><path
       d="m 643.1709,327.4189 c -0.553,3.025 -3.728,4.67 -6.587,3.988 -1.535,-0.366 -2.932,-1.415 -3.764,-2.747 -1.158,-1.857 -1.064,-4.812 1.116,-5.909 0.079,-0.04 0.16,-0.068 0.24,-0.102 1.124,-1.572 3.259,-2.379 5.169,-1.873 2.825,0.749 4.324,3.922 3.826,6.643"
       style="fill:#fad2e3;fill-opacity:1;fill-rule:nonzero;stroke:none"
       id="path4861"
       inkscape:connector-curvature="0" /><path
       d="m 713.5439,325.0928 c -0.394,1.86 -1.87,3.587 -3.75,4.068 -1.964,0.502 -3.925,-0.026 -5.459,-1.308 -1.006,-0.84 -1.682,-2.123 -1.788,-3.413 -0.445,-1.04 -0.493,-2.255 -0.103,-3.344 1.409,-3.922 6.972,-4.488 9.581,-1.514 1.327,1.511 1.939,3.528 1.519,5.511"
       style="fill:#fad2e3;fill-opacity:1;fill-rule:nonzero;stroke:none"
       id="path4865"
       inkscape:connector-curvature="0" /></g></svg>