<?xml version="1.0" encoding="UTF-8" standalone="no"?>
<!-- Generator: Adobe Illustrator 16.0.3, SVG Export Plug-In . SVG Version: 6.00 Build 0)  -->

<svg
   xmlns:dc="http://purl.org/dc/elements/1.1/"
   xmlns:cc="http://creativecommons.org/ns#"
   xmlns:rdf="http://www.w3.org/1999/02/22-rdf-syntax-ns#"
   xmlns:svg="http://www.w3.org/2000/svg"
   xmlns="http://www.w3.org/2000/svg"
   xmlns:sodipodi="http://sodipodi.sourceforge.net/DTD/sodipodi-0.dtd"
   xmlns:inkscape="http://www.inkscape.org/namespaces/inkscape"
   version="1.1"
   id="icon"
   x="0px"
   y="0px"
   width="60px"
   height="60px"
   viewBox="0 0 60 60"
   enable-background="new 0 0 60 60"
   xml:space="preserve"
   sodipodi:docname="home-icon01.svg"
   inkscape:version="0.92.1 r15371"><metadata
     id="metadata4719"><rdf:RDF><cc:Work
         rdf:about=""><dc:format>image/svg+xml</dc:format><dc:type
           rdf:resource="http://purl.org/dc/dcmitype/StillImage" /></cc:Work></rdf:RDF></metadata><defs
     id="defs4717" /><sodipodi:namedview
     pagecolor="#ffffff"
     bordercolor="#666666"
     borderopacity="1"
     objecttolerance="10"
     gridtolerance="10"
     guidetolerance="10"
     inkscape:pageopacity="0"
     inkscape:pageshadow="2"
     inkscape:window-width="1920"
     inkscape:window-height="1027"
     id="namedview4715"
     showgrid="false"
     inkscape:zoom="1.9666667"
     inkscape:cx="-67.43169"
     inkscape:cy="20.831737"
     inkscape:window-x="-8"
     inkscape:window-y="-8"
     inkscape:window-maximized="1"
     inkscape:current-layer="icon" /><g
     transform="matrix(0.20577903,0,0,-0.20577903,3.0978445,85.562049)"
     id="g5037"><path
       d="m 142.4175,177.4502 c 0.569,0.036 1.131,0.21 1.601,0.502 0.56,-0.275 1.162,-0.499 1.787,-0.692 -1.587,-0.18 -3.188,-0.293 -4.801,-0.33 0.471,0.154 0.942,0.326 1.413,0.52 m -22.734,16.065 c -0.401,0.211 -0.803,0.421 -1.201,0.638 -0.556,1.156 -1.125,2.307 -1.711,3.449 1.705,-1.303 3.409,-2.607 5.113,-3.911 -0.739,-0.018 -1.474,-0.072 -2.201,-0.176 m -1.395,37.391 c -0.517,-0.242 -0.955,-0.634 -1.231,-1.169 -0.208,1.181 -0.431,2.36 -0.653,3.539 0.573,-0.825 1.208,-1.611 1.884,-2.37 m -1.885,18.908 c 0.102,0.122 0.198,0.255 0.285,0.406 0.341,0.59 0.659,1.186 0.968,1.785 0.065,-0.124 0.141,-0.247 0.242,-0.367 l 1.678,-1.993 c -0.244,-0.2 -0.494,-0.396 -0.728,-0.603 -0.763,0.706 -1.67,0.809 -2.463,0.509 0.006,0.087 0.011,0.175 0.018,0.263 m -1.437,-66.373 c -0.064,0.696 -0.13,1.394 -0.191,2.09 0.014,-0.007 0.028,-0.013 0.042,-0.019 0.432,-0.676 0.85,-1.359 1.26,-2.049 -0.37,0.001 -0.741,-0.01 -1.111,-0.022 m 5.986,61.27 c 0.888,1.123 1.876,2.178 2.95,3.183 0.755,0.707 0.805,2.155 0,2.853 l -3.225,2.795 c 0.289,0.247 0.522,0.56 0.64,0.957 0.692,0.266 1.268,0.808 1.442,1.586 0.254,1.133 0.556,2.261 0.848,3.39 1.196,-1.074 2.385,-2.156 3.571,-3.241 0.801,-0.732 2.211,-1.092 3.177,-0.41 1.124,0.793 2.229,1.608 3.345,2.41 0.215,0.008 0.434,0.034 0.663,0.103 4.958,1.492 9.254,-2.218 8.05,-7.43 -0.487,-2.11 1.363,-3.444 3,-3.289 0.444,-2.964 0.888,-5.928 1.333,-8.892 -0.352,0.053 -0.738,0.024 -1.156,-0.122 -1.479,-0.517 -2.627,-1.158 -3.56,-2.109 l -0.143,0.088 c -1.226,0.756 -2.818,0.232 -3.556,-0.932 -1.603,-2.532 -4.081,-3.535 -6.973,-2.869 -0.682,0.158 -1.313,0.051 -1.83,-0.228 -0.416,0.8 -0.78,1.647 -1.084,2.563 -0.517,1.559 -2.144,2.212 -3.602,1.466 -1.194,-0.612 -2.388,-1.222 -3.582,-1.832 -0.023,-0.012 -0.041,-0.03 -0.064,-0.042 -1.054,1.246 -1.947,2.602 -2.669,4.039 1.745,1.492 2.629,3.742 2.425,5.963 m 8.108,23.857 c 0.435,-0.847 0.834,-1.709 1.202,-2.589 -0.491,0.229 -0.971,0.488 -1.454,0.76 -0.058,0.372 -0.289,0.714 -0.718,0.823 -0.001,10e-4 -0.003,10e-4 -0.005,0.002 0.327,0.333 0.657,0.664 0.975,1.004 m 5.001,4.352 c -0.263,0.225 -0.527,0.452 -0.79,0.677 0.124,0.166 0.243,0.333 0.365,0.499 0.139,-0.393 0.281,-0.786 0.425,-1.176 m 0.495,16.252 c 0.676,-0.118 1.268,-0.016 1.762,0.221 -0.321,-0.822 -0.656,-1.637 -1.016,-2.439 -0.21,1.605 -2.013,2.363 -3.495,1.868 -0.61,0.356 -1.199,0.73 -1.769,1.125 1.507,-0.257 3.013,-0.512 4.518,-0.775 m 13.087,-56.436 c 0.065,-0.431 0.129,-0.86 0.193,-1.291 -0.285,0.01 -0.57,-0.029 -0.849,-0.091 0.223,0.458 0.439,0.921 0.656,1.382 m -9.277,-6.106 c -0.301,0.22 -0.643,0.381 -1.016,0.461 -0.321,0.389 -0.726,0.693 -1.191,0.84 1.558,0.438 2.994,1.213 4.258,2.31 -0.663,-1.217 -1.344,-2.422 -2.051,-3.611 m 5.66,-0.953 c 0.335,0.6 0.658,1.208 0.982,1.814 0.119,-1.359 0.238,-2.72 0.357,-4.079 -0.153,-0.118 -0.309,-0.233 -0.462,-0.35 -0.036,0.03 -0.068,0.062 -0.104,0.091 -0.166,0.13 -0.34,0.25 -0.516,0.366 0.325,0.753 0.18,1.525 -0.257,2.158 m -20.505,1.599 c 1.093,0.134 2.014,0.956 2.06,2.2 0.824,-1.473 1.819,-2.826 2.989,-4.075 -0.052,-0.021 -0.104,-0.044 -0.155,-0.065 -1.617,0.587 -3.225,1.187 -4.825,1.79 -0.024,0.05 -0.045,0.1 -0.069,0.15 m 42.645,-45.728 c -4.894,9.283 -6.809,19.389 -5.868,29.826 0.249,2.767 -2.846,3.62 -4.762,2.438 -0.445,8.238 -1.475,16.452 -3.312,24.482 -0.122,0.534 -0.351,0.93 -0.637,1.228 -2.781,18.759 -5.563,37.518 -8.331,56.279 -0.144,0.972 -0.804,1.528 -1.596,1.721 -0.453,0.506 -1.105,0.856 -1.971,0.884 -4.484,0.148 -8.969,0.294 -13.453,0.44 -1.6,0.052 -2.513,-1.103 -2.633,-2.381 -0.242,0.042 -0.484,0.084 -0.726,0.125 -2.038,0.351 -4.559,-1.851 -3.037,-3.951 0.041,-0.056 0.085,-0.109 0.126,-0.165 -0.654,-2.195 -1.159,-4.402 -1.519,-6.628 -1.26,-4.56 -1.482,-9.242 -0.659,-14.032 -0.163,-0.218 -0.306,-0.463 -0.406,-0.747 -1.947,-5.523 -3.585,-11.096 -4.944,-16.781 -1.971,-4.755 -2.792,-9.516 -2.268,-14.71 0.019,-0.187 0.067,-0.369 0.128,-0.548 -0.221,-2.131 -0.451,-4.26 -0.677,-6.39 -1.062,-3.155 -1.615,-6.379 -1.881,-9.662 -0.359,-0.889 -0.716,-1.772 -1.052,-2.648 -0.922,-2.396 -1.726,-4.786 -2.255,-7.205 -0.391,-0.263 -0.782,-0.524 -1.169,-0.795 -1.94,-1.357 -1.423,-4.585 0.516,-5.189 0.018,-1.385 0.167,-2.789 0.47,-4.215 -0.409,-0.323 -0.727,-0.778 -0.842,-1.415 -0.514,-2.841 -0.769,-5.671 -0.817,-8.499 -0.466,-0.711 -0.873,-1.436 -1.223,-2.177 -0.739,-0.214 -1.35,-0.776 -1.488,-1.619 -0.255,-0.511 -0.364,-1.135 -0.224,-1.865 0.069,-0.357 0.163,-0.697 0.253,-1.041 -0.169,-0.906 -0.281,-1.837 -0.341,-2.797 -0.098,-1.572 1.413,-2.613 2.821,-2.592 0.489,-0.431 1.113,-0.61 1.741,-0.583 0.723,-0.723 1.944,-0.887 2.917,-0.515 0.093,-1.075 0.763,-2.129 1.946,-2.524 0.258,-0.087 0.521,-0.171 0.781,-0.257 l 0.261,-0.944 c 0.671,-2.424 4.185,-2.569 5.27,-0.765 16.282,-4.68 34.899,-6.799 49.799,2.168 1.413,0.85 1.816,2.617 1.062,4.049"
       style="fill:#f8b133;fill-opacity:1;fill-rule:nonzero;stroke:none"
       id="path4777"
       inkscape:connector-curvature="0" /><path
       d="m 103.5737,324.4912 c -0.581,0.142 -1.193,0.19 -1.802,0.156 -1.486,0.333 -3.057,-0.227 -4.231,-1.199 -2.662,-2.206 -2.386,-6.559 -0.023,-8.863 2.806,-2.737 7.242,-1.851 9.261,1.338 2.004,3.166 0.566,7.646 -3.205,8.568"
       style="fill:#fad2e3;fill-opacity:1;fill-rule:nonzero;stroke:none"
       id="path4781"
       inkscape:connector-curvature="0" /><path
       d="m 198.6323,261.1973 c -2.535,-7.2 -12.841,-1.715 -10.699,3.476 0.113,0.097 0.221,0.204 0.318,0.334 1.725,2.324 4.153,4.234 7.277,3.328 3.12,-0.905 4.107,-4.286 3.104,-7.138 m -46.271,-26.314 c 1.642,-10.117 3.076,-20.304 5.335,-30.307 1.82,-8.055 4.03,-18.616 9.344,-25.398 -1.952,-1.412 -3.705,-2.723 -6.158,-3.444 -2.864,-0.84 -5.937,-1.138 -8.895,-1.426 -6.215,-0.607 -12.485,-0.634 -18.711,-0.157 -12.319,0.946 -23.319,5.247 -35.061,8.294 2.446,3.633 2.925,8.76 3.955,12.957 1.223,4.983 2.394,9.981 3.511,14.988 2.234,10.018 4.257,20.082 6.067,30.185 2.586,14.438 5.218,29.156 6.56,43.881 0.396,0.806 0.78,1.619 1.132,2.443 0.392,0.915 -0.086,1.725 -0.766,1.995 0.188,2.601 0.337,5.2 0.429,7.798 1.926,-0.113 3.842,-0.155 5.725,-0.125 6.068,0.099 12.43,0.862 18.489,2.565 0.196,-10.093 2.225,-20.362 3.66,-30.299 1.637,-11.34 3.549,-22.641 5.384,-33.95 m -71.384,107.841 c -0.908,-1.263 -1.61,-2.62 -2.126,-4.044 -0.81,0.249 -1.62,0.403 -2.285,1.05 -0.753,0.731 -1.406,1.929 -0.745,2.926 1.109,1.672 3.93,1.419 5.156,0.068 m 89.621,2.469 c 0.216,0.107 0.403,0.292 0.502,0.585 0.965,2.83 5.001,1.625 5.859,-0.58 0.542,-1.395 0.292,-2.926 -0.806,-3.978 -1.047,-1.004 -2.369,-0.948 -3.624,-1.335 -0.428,1.821 -1.062,3.6 -1.931,5.308 m -4.278,-1.008 c 4.256,-10.695 0.864,-22.82 -7.541,-30.643 -9.048,-8.424 -21.915,-11.389 -33.951,-11.63 -11.864,-0.238 -25.074,2.159 -33.937,10.68 -8.863,8.521 -9.733,19.893 -6.159,30.986 0.194,-0.009 0.388,-0.011 0.581,-0.006 4.375,-1.492 9.168,0.846 9.642,5.36 3.637,-0.821 7.187,0.846 8.811,4.286 4.943,-2.575 11.064,-0.99 13.367,4.162 5.629,-4.445 13.298,-5.277 18.702,-0.373 3.114,-4.321 8.66,-5.199 12.984,-2.599 0.816,-2.522 2.101,-4.861 4.563,-6.145 1.971,-1.026 4.047,-1.125 5.888,-0.351 1.693,-2.29 4.199,-3.842 7.05,-3.727 m -57.836,-53.577 c -4.167,-1.047 -7.688,0.777 -8.55,5.064 -0.161,0.805 -0.781,1.047 -1.376,0.918 -0.143,-0.007 -0.281,-0.05 -0.399,-0.144 -0.388,-0.203 -0.697,-0.572 -0.789,-1.035 -0.772,-0.904 -1.79,-1.619 -2.901,-1.983 -0.274,-0.076 -0.553,-0.143 -0.836,-0.199 -1.317,-0.203 -2.708,0.114 -3.942,1.222 -0.86,0.771 -1.301,1.885 -1.492,3.042 0.048,0.359 -10e-4,0.684 -0.107,0.976 -0.028,0.569 -0.01,1.129 0.048,1.644 0.093,0.819 -1.013,1.4 -1.663,0.955 -3.399,-2.329 -8.186,-2.193 -10.78,1.35 -2.733,3.732 -0.939,7.663 1.665,10.795 0.249,0.299 0.297,0.639 0.225,0.939 0.214,0.599 -0.452,1.346 -1.123,1.174 -2.936,-0.755 -4.855,2.032 -4.441,4.739 0.372,2.437 2.299,4.181 2.711,6.52 0.131,0.747 -0.588,1.409 -1.309,1.007 -0.154,-0.087 -0.303,-0.19 -0.452,-0.292 -4.394,0.231 -9.033,7.562 -9.702,10.993 -0.815,4.18 1.154,6.544 3.875,9.003 0.083,0.053 0.157,0.11 0.242,0.164 0.226,0.14 0.399,0.321 0.53,0.522 0.038,0.033 0.074,0.067 0.112,0.1 0.308,0.268 0.398,0.633 0.341,0.98 0.361,0.076 0.518,0.537 0.256,0.857 -3.074,3.751 -3.556,8.254 0.036,10.911 0.507,0.247 1.049,0.446 1.621,0.581 0.527,0.124 0.883,0.45 1.089,0.857 0.387,0.268 0.655,0.732 0.478,1.219 -2.046,5.664 0.984,10.1 5.779,12.282 0.553,0.191 1.111,0.372 1.669,0.548 0.22,0.068 0.401,0.165 0.565,0.273 0.01,0.002 0.019,0.005 0.029,0.008 0.279,0.079 0.45,0.261 0.573,0.47 0.103,0.011 0.205,0.038 0.303,0.079 0.657,-0.164 1.477,0.348 1.185,1.13 -2.293,6.154 2.559,12.489 9.264,9.477 0.931,-0.419 2.098,0.06 2.096,1.202 -0.012,5.33 4.112,10.122 9.482,10.707 5.256,0.573 9.434,-2.411 12.344,-6.454 0.066,-0.116 0.138,-0.218 0.219,-0.309 0.159,-0.228 0.316,-0.458 0.467,-0.692 0.488,-0.758 1.598,-0.699 2.14,-0.173 0.174,0.033 0.351,0.105 0.519,0.238 3.901,3.085 8.989,1.906 11.251,-2.404 0.585,-1.114 2.484,-1.189 3.047,0 1.709,3.61 5.498,6.242 9.647,5.282 4.788,-1.108 5.574,-5.411 6.885,-9.377 0.08,-0.245 0.214,-0.42 0.371,-0.552 0.312,-0.473 0.931,-0.771 1.504,-0.42 3.771,2.321 8.342,0.249 8.769,-3.793 -0.088,-0.342 -0.078,-0.682 0.025,-0.999 -0.019,-0.309 -0.06,-0.626 -0.127,-0.952 -0.261,-1.281 0.979,-2.228 2.146,-1.649 4.439,2.202 8.63,1.395 12.334,-1.876 3.734,-3.299 4.726,-6.622 2.701,-10.776 -0.231,-0.041 -0.464,-0.091 -0.701,-0.151 -1.358,-0.343 -1.094,-2.513 0.333,-2.463 0.098,0.003 0.194,-0.007 0.291,-0.008 0.29,-0.236 0.671,-0.335 1.084,-0.172 0.029,0.01 0.051,0.027 0.08,0.039 3.169,-0.72 5.455,-4.051 2.805,-7.345 -0.903,-1.122 -0.529,-2.475 0.794,-3.01 4.683,-1.894 7.874,-7.239 6.562,-12.261 -1.44,-5.516 -6.143,-6.852 -10.819,-8.515 -1.337,-0.476 -1.576,-2.591 0,-2.959 0.222,-0.053 0.444,-0.072 0.665,-0.107 2.214,-2.322 4.294,-5.159 3.627,-8.533 -0.811,-4.104 -4.875,-6.342 -8.776,-4.466 -0.813,0.391 -2.041,-0.06 -1.959,-1.124 0.268,-3.506 -0.62,-16.717 -8.154,-9.91 -0.102,0.143 -0.203,0.284 -0.331,0.404 -0.692,0.648 -2.088,0.66 -2.54,-0.328 -0.721,-1.576 -0.203,-3.704 -0.292,-5.443 -0.008,-0.147 -0.033,-0.337 -0.061,-0.539 -1.388,-1.069 -3.269,-1.677 -4.903,-1.66 -3.384,0.033 -5.226,2.28 -8.151,3.224 -0.287,0.093 -0.541,0.068 -0.761,-0.022 -0.046,0.149 -0.083,0.303 -0.13,0.452 7.147,2.343 13.743,6.084 18.745,11.738 5.785,6.538 9.4,15.781 8.671,24.559 2.444,-0.519 5.379,1.463 6.672,3.345 1.693,2.464 1.606,5.817 0.001,8.307 -1.403,2.175 -3.942,3.505 -6.533,2.957 -1.198,-0.254 -2.277,-0.84 -3.023,-1.687 -0.127,0.597 -0.55,1.106 -1.351,1.261 -1.545,0.295 -3.219,0.613 -4.477,1.628 -1.138,0.917 -1.366,2.092 -1.652,3.439 -0.143,0.671 -0.91,0.937 -1.488,0.704 -0.162,0.009 -0.328,0 -0.5,-0.048 -1.065,-0.299 -1.719,-1.11 -2.736,-1.485 -1.522,-0.563 -2.706,0.049 -3.655,1.266 -1.579,2.027 -2.189,4.575 -3.874,6.531 -0.458,0.531 -1.297,0.231 -1.519,-0.356 -0.382,0.142 -0.818,0.105 -1.257,-0.23 -1.741,-1.325 -2.815,-3.218 -5.311,-3.139 -2.092,0.067 -4.077,1.665 -5.223,3.317 -0.072,0.103 -0.163,0.188 -0.264,0.257 -0.51,0.688 -1.389,1.017 -2.321,0.356 -2.659,-1.888 -5.536,-3.452 -8.875,-3.599 -3.171,-0.138 -7.952,1.241 -9.244,4.593 -0.345,0.895 -1.491,1.06 -1.984,0.304 -0.586,-0.01 -1.162,-0.289 -1.537,-0.964 -2.215,-3.988 -7.145,-6.866 -10.649,-2.484 -1.287,1.61 -3.611,-0.169 -3.222,-1.876 1.331,-5.836 -6.168,-3.951 -8.168,-3.374 -1.678,0.484 -2.841,-1.356 -2.138,-2.781 2.816,-5.701 -4.156,-5.342 -6.322,-5.144 -0.861,0.079 -1.352,-0.44 -1.487,-1.084 -2.627,1.928 -6.908,1.459 -8.707,-1.635 -1.325,-2.278 -0.739,-5.142 0.899,-7.089 1,-1.189 3.036,-2.372 4.786,-2.267 -1.316,-8.385 2.511,-18.089 7.641,-24.165 7.453,-8.827 18.838,-12.847 30.193,-14.046 -0.121,-0.697 -0.229,-1.397 -0.347,-2.095 -1.542,-2.221 -4.747,-3.709 -6.961,-4.266 m 48.529,-149.564 c 1.391,0.986 4.524,2.032 5.868,0.234 1.712,-2.289 -2.059,-3.369 -3.834,-3.724 -1.659,-0.331 -3.357,-0.356 -5.024,-0.138 1.102,1.169 1.588,2.634 2.99,3.628 m -51.478,-1.637 c -1.879,0.413 -6.036,2.758 -2.708,4.461 3.806,1.946 5.44,-2.196 7.117,-5.147 -1.491,0.042 -3.013,0.379 -4.409,0.686 m -36.762,104.584 c -2.118,-1.307 -5.043,0.022 -5.908,2.243 -0.929,2.386 0.908,5.121 3.33,5.639 1.885,0.402 3.595,-0.443 4.729,-1.813 -0.597,-0.648 -0.479,-1.457 0.01,-2.011 -0.268,-1.577 -0.582,-3.083 -2.161,-4.058 m 128.783,27.379 c -4.356,1.863 -11.315,0.156 -12.592,-4.978 -0.128,-0.512 -0.064,-0.952 0.121,-1.3 -0.271,-0.582 -0.443,-1.19 -0.52,-1.815 -7.388,2.414 -14.209,4.096 -20.736,8.749 -6.578,4.691 -11.76,10.992 -15.635,18.041 -0.307,1.44 -0.627,2.874 -0.981,4.296 0.367,-0.254 0.743,-0.489 1.129,-0.709 0.04,-0.022 0.077,-0.046 0.117,-0.067 5.549,-3.092 12.773,-2.561 15.48,3.594 3.712,-0.879 7.7,-0.838 10.62,2.025 2.915,2.858 2.841,6.898 2.182,10.658 3.832,-1.021 7.927,2.352 9.631,5.674 1.92,3.743 1.362,7.851 -0.695,11.238 9.869,5.62 12.123,19.918 1.766,26.978 -0.163,0.111 -0.329,0.179 -0.494,0.229 3.557,4.225 1.073,10.194 -3.693,12.2 0.489,10.589 -8.383,18.834 -18.813,17.158 -0.293,5.626 -6.103,9.59 -11.216,7.018 -2.762,8.563 -16.541,14.109 -22.059,6.153 -2.034,2.043 -4.818,3.248 -7.799,3.077 -1.293,-0.074 -3.909,-0.817 -5.544,-2.072 -2.925,5.462 -9.026,8.968 -15.368,8.095 -6.144,-0.847 -11.609,-5.913 -12.419,-12.05 -3.932,0.903 -8.494,-1 -10.825,-4.184 -1.912,-2.614 -2.661,-6.442 -1.414,-9.423 -4.339,-0.852 -8.565,-3.48 -10.414,-7.607 -1.083,-2.418 -1.174,-5.54 0.086,-7.894 -5.611,-2.281 -7.762,-10.673 -3.354,-14.605 -8.984,-5.752 -5.832,-23.408 4.231,-25.447 -1.56,-2.443 -1.776,-5.945 -0.791,-8.495 0.587,-1.518 2.225,-3.259 4.013,-3.997 -2.414,-3.466 -2.334,-8.448 0.182,-11.993 2.97,-4.184 8.201,-5.659 12.592,-3.625 0.041,-6.206 7.01,-8.161 12.49,-6.252 2.919,-6.04 11.937,-6.742 17.355,-2.999 -0.177,-1.154 -0.357,-2.306 -0.528,-3.46 -4.963,-6.8 -10.335,-13.097 -16.959,-18.516 -3.91,-3.197 -8.158,-6.009 -12.606,-8.402 -3.34,-1.798 -7.741,-2.882 -11.062,-4.956 -1.445,2.527 -4.262,4.217 -7.342,3.875 -4.585,-0.51 -7.988,-5.588 -6.809,-10.026 1.21,-4.554 6.507,-7.39 10.898,-5.557 2.717,1.134 5.243,4.481 5.023,7.54 4.004,0.695 8.417,3.427 11.606,5.166 4.574,2.493 8.882,5.438 12.925,8.721 4.783,3.884 9.292,8.427 13.073,13.47 -1.607,-11.35 -3.149,-22.715 -5.239,-33.995 -1.814,-9.791 -3.829,-19.546 -6.044,-29.255 -1.074,-4.708 -2.195,-9.404 -3.361,-14.09 -1.131,-4.539 -3.559,-9.97 -3.014,-14.668 0.019,-0.156 0.066,-0.291 0.11,-0.426 -0.313,-0.421 -0.376,-0.993 0.128,-1.385 5.616,-4.365 12.48,-7.235 19.666,-9.119 -0.521,-4.486 -0.64,-9.033 -1.064,-13.523 -0.459,-4.87 -1.158,-9.688 -1.926,-14.507 -1.184,1.573 -2.664,2.893 -4.082,3.568 -2.979,1.418 -7.201,0.648 -9.097,-2.199 -2.137,-3.211 -0.097,-7.18 3.181,-8.564 2.733,-1.153 6.646,-1.173 9.646,0.047 0.023,-0.022 0.046,-0.047 0.068,-0.068 0.852,-0.796 2.112,-0.408 2.499,0.556 0.343,0.219 0.62,0.581 0.742,1.127 2.3,10.294 4.155,22.096 3.024,32.841 6.066,-1.354 12.268,-2.072 18.07,-2.433 3.468,-0.214 6.945,-0.229 10.415,-0.072 -0.272,-5.051 0.057,-10.107 0.539,-15.145 0.484,-5.063 0.632,-11.025 2.505,-15.756 0.167,-0.423 0.443,-0.703 0.758,-0.869 -0.013,-0.337 0.127,-0.67 0.507,-0.855 4.04,-1.971 8.751,-2.549 12.996,-0.765 2.833,1.191 4.714,4.054 3.11,7.042 -1.581,2.945 -5.359,3.963 -8.414,3.186 -1.993,-0.507 -4.535,-2.013 -5.926,-3.986 -0.085,4.579 -1.079,9.424 -1.599,13.814 -0.536,4.516 -1.037,9.028 -1.918,13.484 2.955,0.208 5.902,0.536 8.83,0.987 4.989,0.767 11.685,2.245 13.469,7.673 0.096,0.29 0.104,0.582 0.052,0.861 0.261,0.417 0.373,0.927 0.223,1.463 -1.292,4.61 -3.897,8.879 -5.447,13.445 -1.483,4.37 -2.645,8.843 -3.627,13.351 -2.191,10.06 -3.571,20.298 -5.169,30.464 -1.683,10.704 -3.303,21.422 -5.153,32.098 -0.736,4.246 -1.403,8.578 -2.153,12.906 3.002,-4.676 6.799,-8.764 11.315,-12.218 6.371,-4.872 15.514,-9.726 23.759,-9.549 0.01,0 0.016,0.005 0.026,0.005 0.599,-2.064 2.027,-3.989 3.928,-5.174 4.54,-2.831 10.709,-1.571 13.131,3.372 2.216,4.524 0.444,10.771 -4.316,12.805"
       style="fill:#3c3c3b;fill-opacity:1;fill-rule:nonzero;stroke:none"
       id="path4785"
       inkscape:connector-curvature="0" /><path
       d="m 143.5166,241.5254 c -1.697,-3.321 -5.333,-2.028 -6.826,0.704 -0.154,0.283 -0.355,0.454 -0.571,0.544 0.528,0.745 0.877,1.625 0.948,2.616 0.029,0.41 -0.023,0.836 -0.14,1.257 0.187,0.004 0.375,0.044 0.563,0.071 0.159,-0.16 0.404,-0.244 0.671,-0.128 3.22,1.408 7.096,-1.655 5.355,-5.064 m -9.586,-7.606 c -1.679,-0.201 -3.169,0.649 -3.679,2.296 -0.476,1.537 0.082,2.768 0.75,4.056 1.225,-0.029 2.449,0.313 3.473,0.954 0.274,-1.789 1.288,-3.023 2.608,-3.737 -0.007,-1.711 -0.997,-3.313 -3.152,-3.569 m -2.931,15.489 c -0.32,-0.382 -0.127,-1.111 0.393,-1.198 1.766,-0.301 3.943,-1.175 2.846,-3.49 -0.852,-1.797 -3.058,-2.299 -4.732,-1.406 -3.257,1.737 -1.495,5.898 1.493,6.094 m -5.781,-11.624 c -1.883,-0.622 -3.702,0.195 -4.055,2.208 -0.314,1.801 0.751,3.388 2.196,4.354 0.531,0.356 1.136,0.577 1.732,0.805 0.355,-1.818 1.69,-3.418 3.423,-4.261 -0.767,-1.36 -1.784,-2.606 -3.296,-3.106 m -1.256,16.063 c 1.023,1.039 2.45,1.233 3.721,0.506 1.314,-0.75 1.625,-1.934 2.026,-3.221 -1.821,-0.146 -3.569,-1.324 -4.319,-3.094 -0.019,-0.045 -0.031,-0.091 -0.049,-0.136 -1.158,0.307 -2.203,1.458 -2.461,2.521 -0.29,1.196 0.245,2.572 1.082,3.424 m 14.794,3.123 c 1.917,-1.108 2.841,-3.351 1.693,-5.36 -1.233,-2.157 -3.078,-2.064 -5.154,-2.424 -0.606,0.528 -1.313,0.897 -2.044,0.985 -0.018,0.052 -0.027,0.106 -0.06,0.158 -2.378,3.683 1.284,9.115 5.565,6.641 m 2.104,-8.601 c 0.938,0.797 1.705,1.762 2.105,2.692 1.327,3.073 -0.149,6.426 -2.955,8.054 -4.019,2.331 -8.042,-0.108 -9.212,-3.577 -0.673,0.716 -1.475,1.298 -2.265,1.648 -2.538,1.127 -5.359,0.344 -7.079,-1.797 -1.539,-1.914 -2.009,-4.701 -0.704,-6.873 0.416,-0.693 0.969,-1.199 1.581,-1.553 -0.961,-0.545 -1.819,-1.255 -2.408,-1.925 -1.692,-1.926 -2.133,-4.751 -1.034,-7.087 1.16,-2.466 3.827,-3.618 6.417,-2.746 0.802,0.27 1.483,0.682 2.075,1.184 0.039,-0.389 0.102,-0.77 0.206,-1.121 0.867,-2.917 3.767,-4.476 6.704,-4.029 2.78,0.422 5.121,2.562 5.153,5.475 0,0.03 -0.007,0.058 -0.007,0.087 2.681,-0.25 5.61,1.076 6.545,3.924 1.266,3.861 -1.626,7.424 -5.122,7.644"
       style="fill:#3c3c3b;fill-opacity:1;fill-rule:nonzero;stroke:none"
       id="path4789"
       inkscape:connector-curvature="0" /><path
       d="m 98.9102,381.9385 c 0.728,1.984 1.658,3.964 2.688,5.695 1.127,1.897 1.882,2.824 3.949,1.361 0.989,-0.701 1.747,-2.168 2.439,-3.172 1.53,-2.222 4.079,-6.045 0.847,-7.274 -0.423,0.006 -0.745,0.006 -0.785,0.004 -1.684,-0.047 -3.367,-0.005 -5.051,0.044 -0.287,0.009 -0.537,-0.039 -0.761,-0.116 -0.648,1.495 -1.846,2.757 -3.326,3.458 m -1.656,-8.023 c -0.91,-0.175 -2.032,0.08 -2.948,0.626 -0.231,0.425 -0.487,0.832 -0.789,1.193 -0.042,0.096 -0.104,0.165 -0.184,0.208 -0.02,0.021 -0.04,0.043 -0.06,0.063 0.007,0.018 0.013,0.035 0.02,0.052 0.658,0.925 1.124,1.877 2.469,2.092 0.757,0.12 1.404,-0.139 1.863,-0.612 -0.413,-0.775 -0.194,-1.866 0.655,-2.304 -0.129,-0.638 -0.521,-1.072 -1.026,-1.318 m -6.073,-5.001 c -0.882,-1.602 -2.599,-3.048 -3.88,-4.098 -0.201,-0.165 -0.328,-0.347 -0.404,-0.533 -1.815,1.325 -3.655,2.622 -5.404,4.032 -0.812,0.655 -3.155,1.968 -2.803,3.28 0.176,0.652 2.78,1.648 3.395,1.941 1.921,0.914 4.326,1.67 6.387,1.118 0.044,-0.018 0.079,-0.048 0.127,-0.062 2.278,-0.661 2.989,-3.246 2.582,-5.678 m 19.661,21.025 c -2.357,3.1 -5.833,6.329 -9.712,3.603 -3.463,-2.435 -5.4,-7.04 -5.933,-11.152 -2.372,-0.524 -4.922,-2.465 -5.448,-4.792 -0.177,-0.002 -0.352,0.004 -0.534,-0.02 -1.912,0.518 -4.036,0.467 -5.94,-0.018 -3.084,-0.785 -9.443,-2.976 -8.597,-7.218 0.209,-1.048 0.888,-1.971 1.723,-2.794 3.47,-5.451 11.25,-10.568 16.183,-4.652 1.654,1.983 2.715,4.638 2.758,7.27 3.046,-0.664 6.378,1.299 7.217,4.386 0.137,-0.035 0.283,-0.06 0.438,-0.069 3.087,-0.185 11.129,-1.53 12.236,2.71 1.03,3.942 -2.12,9.759 -4.391,12.746"
       style="fill:#3c3c3b;fill-opacity:1;fill-rule:nonzero;stroke:none"
       id="path4793"
       inkscape:connector-curvature="0" /><path
       d="m 106.5142,340.2441 c -3.268,-0.509 -5.707,-4.518 -3.628,-7.424 0.684,-0.957 2.609,-0.409 2.081,0.877 -0.635,1.545 0.632,3.513 2.375,3.466 2.167,-0.06 2.926,-2.448 3.26,-4.156 0.344,-1.76 3.011,-1.288 3.047,0.412 0.077,3.635 -3.353,7.415 -7.135,6.825"
       style="fill:#3c3c3b;fill-opacity:1;fill-rule:nonzero;stroke:none"
       id="path4797"
       inkscape:connector-curvature="0" /><path
       d="m 150.5103,343.6553 c -4.414,1.149 -8.551,-3.056 -7.722,-7.376 0.315,-1.635 2.779,-1.187 2.82,0.382 0.056,2.092 2.151,4.513 4.408,3.612 2.084,-0.832 2.174,-3.097 1.603,-4.896 -0.576,-1.813 1.91,-2.607 2.895,-1.221 2.388,3.36 -0.314,8.538 -4.004,9.499"
       style="fill:#3c3c3b;fill-opacity:1;fill-rule:nonzero;stroke:none"
       id="path4801"
       inkscape:connector-curvature="0" /><path
       d="m 135.4146,311.8936 c -4.743,-0.358 -9.072,-1.521 -13.895,-0.753 -4.6,0.732 -8.965,2.357 -12.965,4.712 0.417,0.496 0.966,0.903 1.078,1.566 0.103,0.614 -0.155,1.273 -0.819,1.441 -1.576,0.4 -2.7,-1.285 -3.103,-2.599 -0.407,-1.326 -0.218,-2.762 0.48,-3.955 0.579,-0.991 2.287,-0.342 1.9,0.801 -0.149,0.437 -0.188,0.869 -0.138,1.296 7.242,-6.082 19.48,-9.629 28.053,-4.692 0.962,0.554 0.599,2.273 -0.591,2.183"
       style="fill:#3c3c3b;fill-opacity:1;fill-rule:nonzero;stroke:none"
       id="path4805"
       inkscape:connector-curvature="0" /><path
       d="m 160.9609,324.3809 c -1.741,3.69 -6.642,4.145 -9.023,1.322 -1.891,-1.145 -2.912,-3.431 -2.464,-5.786 0.656,-3.447 4.211,-5.291 7.471,-4.266 3.676,1.155 5.69,5.181 4.016,8.73"
       style="fill:#fad2e3;fill-opacity:1;fill-rule:nonzero;stroke:none"
       id="path4809"
       inkscape:connector-curvature="0" /></g></svg>